<svg width="27" height="27" viewBox="0 0 27 27" fill="none" xmlns="http://www.w3.org/2000/svg">
<path d="M13.5 0.35714C14.4073 0.35714 15.1428 1.09267 15.1428 2V11.8571H25C25.9073 11.8571 26.6428 12.5927 26.6428 13.5C26.6428 14.4073 25.9073 15.1429 25 15.1429H15.1428V25C15.1428 25.9073 14.4073 26.6429 13.5 26.6429C12.5926 26.6429 11.8571 25.9073 11.8571 25V15.1429H1.99997C1.09265 15.1429 0.357117 14.4073 0.357117 13.5C0.357117 12.5927 1.09265 11.8571 1.99997 11.8571H11.8571V2C11.8571 1.09267 12.5926 0.35714 13.5 0.35714Z" fill="white"/>
</svg>
