<svg width="39" height="39" viewBox="0 0 39 39" fill="none" xmlns="http://www.w3.org/2000/svg">
<path d="M6.52735 28.9915C7.04019 29.5058 7.29697 30.222 7.22776 30.945C7.07264 32.5652 6.71535 34.2514 6.2565 35.8178C9.65655 35.032 11.7331 34.1204 12.677 33.6421C13.2128 33.3706 13.8299 33.3064 14.4101 33.462C16.0136 33.892 17.7225 34.125 19.5 34.125C29.2393 34.125 36.5625 27.2816 36.5625 19.5C36.5625 11.7184 29.2393 4.875 19.5 4.875C9.76073 4.875 2.4375 11.7184 2.4375 19.5C2.4375 23.0785 3.94218 26.3991 6.52735 28.9915ZM5.32568 38.5099C5.30926 38.5131 5.29283 38.5164 5.27636 38.5196C5.05253 38.5638 4.82435 38.6072 4.59181 38.6498C4.26562 38.7095 3.93082 38.7676 3.58732 38.8239C3.10222 38.9033 2.73089 38.3958 2.92251 37.9431C3.0477 37.6474 3.17112 37.3374 3.29136 37.016C3.36774 36.8119 3.44284 36.6031 3.51631 36.3904C3.51947 36.3813 3.52263 36.3721 3.52579 36.3629C4.12967 34.6086 4.62141 32.5921 4.80135 30.7127C1.81121 27.7141 0 23.7921 0 19.5C0 10.0766 8.73045 2.4375 19.5 2.4375C30.2696 2.4375 39 10.0766 39 19.5C39 28.9234 30.2696 36.5625 19.5 36.5625C17.5092 36.5625 15.588 36.3014 13.7788 35.8163C12.5126 36.458 9.78495 37.626 5.32568 38.5099Z" fill="white"/>
</svg>
