<svg width="32" height="32" viewBox="0 0 32 32" fill="none" xmlns="http://www.w3.org/2000/svg">
<path d="M17 11.1999C17 10.6477 16.5523 10.2 16 10.2C15.4477 10.2 15 10.6477 15 11.2L15 17H9C8.44772 17 8 17.4477 8 18C8 18.5523 8.44772 19 9 19H16C16.2652 19 16.5196 18.8946 16.7071 18.7071C16.8946 18.5196 17 18.2652 17 18L17 11.1999Z" fill="white"/>
<path d="M13 2C13 1.44772 13.4477 1 14 1H18C18.5523 1 19 1.44772 19 2C19 2.55228 18.5523 3 18 3V4.14189C20.7197 4.53106 23.1872 5.70166 25.1677 7.41894C25.1757 7.41028 25.184 7.40173 25.1924 7.39329L25.8995 6.68619L25.1924 5.97908C24.8019 5.58856 24.8019 4.95539 25.1924 4.56487C25.583 4.17434 26.2161 4.17434 26.6066 4.56487L29.4351 7.39329C29.8256 7.78382 29.8256 8.41698 29.4351 8.80751C29.0445 9.19803 28.4114 9.19803 28.0209 8.80751L27.3137 8.1004L26.6066 8.80751C26.5982 8.81593 26.5897 8.82416 26.581 8.83222C28.711 11.2883 30 14.4935 30 18C30 25.732 23.732 32 16 32C8.26801 32 2 25.732 2 18C2 10.9469 7.21498 5.11278 14 4.14189V3C13.4477 3 13 2.55228 13 2ZM16 6C15.6889 6 15.3807 6.01182 15.0759 6.03501C8.88076 6.50628 4 11.6836 4 18C4 24.6274 9.37258 30 16 30C22.6274 30 28 24.6274 28 18C28 11.6836 23.1192 6.50628 16.9241 6.03501C16.6193 6.01182 16.3111 6 16 6Z" fill="white"/>
<path d="M17 11.1999C17 10.6477 16.5523 10.2 16 10.2C15.4477 10.2 15 10.6477 15 11.2L15 17H9C8.44772 17 8 17.4477 8 18C8 18.5523 8.44772 19 9 19H16C16.2652 19 16.5196 18.8946 16.7071 18.7071C16.8946 18.5196 17 18.2652 17 18L17 11.1999Z" fill="white"/>
<path d="M13 2C13 1.44772 13.4477 1 14 1H18C18.5523 1 19 1.44772 19 2C19 2.55228 18.5523 3 18 3V4.14189C20.7197 4.53106 23.1872 5.70166 25.1677 7.41894C25.1757 7.41028 25.184 7.40173 25.1924 7.39329L25.8995 6.68619L25.1924 5.97908C24.8019 5.58856 24.8019 4.95539 25.1924 4.56487C25.583 4.17434 26.2161 4.17434 26.6066 4.56487L29.4351 7.39329C29.8256 7.78382 29.8256 8.41698 29.4351 8.80751C29.0445 9.19803 28.4114 9.19803 28.0209 8.80751L27.3137 8.1004L26.6066 8.80751C26.5982 8.81593 26.5897 8.82416 26.581 8.83222C28.711 11.2883 30 14.4935 30 18C30 25.732 23.732 32 16 32C8.26801 32 2 25.732 2 18C2 10.9469 7.21498 5.11278 14 4.14189V3C13.4477 3 13 2.55228 13 2ZM16 6C15.6889 6 15.3807 6.01182 15.0759 6.03501C8.88076 6.50628 4 11.6836 4 18C4 24.6274 9.37258 30 16 30C22.6274 30 28 24.6274 28 18C28 11.6836 23.1192 6.50628 16.9241 6.03501C16.6193 6.01182 16.3111 6 16 6Z" fill="white"/>
</svg>
