<svg width="26" height="26" viewBox="0 0 26 26" fill="none" xmlns="http://www.w3.org/2000/svg">
<path d="M0.536971 0.536971C1.25293 -0.17899 2.41373 -0.17899 3.1297 0.536971L12.8333 10.2406L22.537 0.536971C23.2529 -0.17899 24.4137 -0.17899 25.1297 0.536971C25.8457 1.25293 25.8457 2.41373 25.1297 3.1297L15.4261 12.8333L25.1297 22.537C25.8457 23.2529 25.8457 24.4137 25.1297 25.1297C24.4137 25.8457 23.2529 25.8457 22.537 25.1297L12.8333 15.4261L3.1297 25.1297C2.41373 25.8457 1.25293 25.8457 0.536971 25.1297C-0.17899 24.4137 -0.17899 23.2529 0.536971 22.537L10.2406 12.8333L0.536971 3.1297C-0.17899 2.41373 -0.17899 1.25293 0.536971 0.536971Z" fill="white"/>
</svg>
